<svg width="15" height="18" viewBox="0 0 15 18" fill="none" xmlns="http://www.w3.org/2000/svg">
<path d="M13 2H2V15.5885L6.45703 11.0112L7.5 10L8.54297 11.0112L13 15.5V2ZM13.6406 0C13.8203 0 13.9922 0.0356907 14.1562 0.107072C14.4141 0.210178 14.6191 0.372769 14.7715 0.594845C14.9238 0.81692 15 1.06279 15 1.33245V16.6675C15 16.9372 14.9238 17.1831 14.7715 17.4052C14.6191 17.6272 14.4141 17.7898 14.1562 17.8929C14.0078 17.9564 13.8359 17.9881 13.6406 17.9881C13.2656 17.9881 12.9414 17.8612 12.668 17.6074L7.5 12.5631L2.33203 17.6074C2.05078 17.8691 1.72656 18 1.35938 18C1.17969 18 1.00781 17.9643 0.84375 17.8929C0.585938 17.7898 0.380859 17.6272 0.228516 17.4052C0.0761719 17.1831 0 16.9372 0 16.6675V1.33245C0 1.06279 0.0761719 0.81692 0.228516 0.594845C0.380859 0.372769 0.585938 0.210178 0.84375 0.107072C1.00781 0.0356907 1.17969 0 1.35938 0H13.6406Z" fill="#404040"/>
</svg>
