<svg width="18" height="18" viewBox="0 0 18 18" fill="none" xmlns="http://www.w3.org/2000/svg">
<path d="M9 16.8924C4.57606 16.8924 1 13.3291 1 8.94619C1 4.56328 4.57606 1 9 1C13.4239 1 17 4.56328 17 8.94619C17 10.394 16.6111 11.7488 15.9317 12.9163C15.7221 13.2764 15.7339 13.6618 15.7524 13.8693C15.7741 14.113 15.8328 14.3654 15.8973 14.5941C16.0149 15.0116 16.1938 15.4935 16.3554 15.9286C16.3705 15.9693 16.3855 16.0097 16.4003 16.0495C16.4951 16.3054 16.5815 16.542 16.6539 16.756C16.4619 16.6788 16.2499 16.5876 16.0188 16.4869C15.9813 16.4705 15.9432 16.4539 15.9046 16.437C15.4852 16.2538 15.012 16.0471 14.5943 15.9092C14.365 15.8335 14.1073 15.7629 13.8521 15.7343C13.62 15.7082 13.2406 15.6982 12.8775 15.8985C11.7301 16.5314 10.4091 16.8924 9 16.8924ZM16.8626 17.5666C16.8626 17.5788 16.8616 17.5766 16.8626 17.5635C16.8626 17.5646 16.8626 17.5657 16.8626 17.5666Z" stroke="#404040" stroke-width="2"/>
</svg>
