<svg width="29" height="29" viewBox="0 0 29 29" fill="none" xmlns="http://www.w3.org/2000/svg">
<path d="M19.7951 27H9.20512C8.46045 27.0022 7.74175 26.7265 7.18967 26.2267C6.63758 25.727 6.29185 25.0392 6.22012 24.298L4.50512 7.099C4.49098 6.95996 4.5062 6.8195 4.54979 6.68672C4.59338 6.55393 4.66437 6.43178 4.75817 6.32818C4.85197 6.22458 4.96648 6.14183 5.0943 6.0853C5.22211 6.02876 5.36037 5.9997 5.50012 6H23.5001C23.6398 6.00001 23.7779 6.02928 23.9056 6.08592C24.0332 6.14256 24.1476 6.22531 24.2413 6.32884C24.3351 6.43238 24.4061 6.5544 24.4498 6.68704C24.4935 6.81969 24.509 6.96002 24.4951 7.099L22.7801 24.297C22.7084 25.0383 22.3627 25.7262 21.8107 26.2261C21.2586 26.726 20.5399 27.002 19.7951 27V27ZM6.60412 8L8.21012 24.099C8.23425 24.346 8.34954 24.5752 8.53352 24.7418C8.71749 24.9084 8.95693 25.0004 9.20512 25H19.7951C20.0433 25.0004 20.2828 24.9084 20.4667 24.7418C20.6507 24.5752 20.766 24.346 20.7901 24.099L22.3961 8H6.60412Z" fill="#404040"/>
<path d="M26 8H3C2.73478 8 2.48043 7.89464 2.29289 7.70711C2.10536 7.51957 2 7.26522 2 7C2 6.73478 2.10536 6.48043 2.29289 6.29289C2.48043 6.10536 2.73478 6 3 6H26C26.2652 6 26.5196 6.10536 26.7071 6.29289C26.8946 6.48043 27 6.73478 27 7C27 7.26522 26.8946 7.51957 26.7071 7.70711C26.5196 7.89464 26.2652 8 26 8ZM14.5 23C14.2348 23 13.9804 22.8946 13.7929 22.7071C13.6054 22.5196 13.5 22.2652 13.5 22V11C13.5 10.7348 13.6054 10.4804 13.7929 10.2929C13.9804 10.1054 14.2348 10 14.5 10C14.7652 10 15.0196 10.1054 15.2071 10.2929C15.3946 10.4804 15.5 10.7348 15.5 11V22C15.5 22.2652 15.3946 22.5196 15.2071 22.7071C15.0196 22.8946 14.7652 23 14.5 23ZM10.999 23C10.7495 22.9998 10.5091 22.9063 10.3251 22.7379C10.141 22.5696 10.0265 22.3385 10.004 22.09L9.004 11.09C8.9801 10.826 9.06201 10.5633 9.23171 10.3597C9.40141 10.156 9.64502 10.0281 9.909 10.004C10.1732 9.98065 10.4358 10.0629 10.6395 10.2326C10.8432 10.4024 10.9714 10.646 10.996 10.91L11.996 21.91C12.0085 22.0484 11.992 22.188 11.9476 22.3197C11.9032 22.4514 11.8318 22.5724 11.7379 22.6749C11.6441 22.7775 11.53 22.8594 11.4027 22.9153C11.2755 22.9713 11.138 23.0001 10.999 23ZM18.001 23C17.862 23.0001 17.7245 22.9713 17.5973 22.9153C17.47 22.8594 17.3559 22.7775 17.2621 22.6749C17.1682 22.5724 17.0968 22.4514 17.0524 22.3197C17.008 22.188 16.9915 22.0484 17.004 21.91L18.004 10.91C18.055 10.36 18.535 9.964 19.091 10.004C19.355 10.0281 19.5986 10.156 19.7683 10.3597C19.938 10.5633 20.0199 10.826 19.996 11.09L18.996 22.09C18.9735 22.3385 18.859 22.5696 18.6749 22.7379C18.4908 22.9063 18.2505 22.9998 18.001 23V23Z" fill="#404040"/>
<path d="M19 8H10C9.73478 8 9.48043 7.89464 9.29289 7.70711C9.10536 7.51957 9 7.26522 9 7V3C9 2.73478 9.10536 2.48043 9.29289 2.29289C9.48043 2.10536 9.73478 2 10 2H19C19.2652 2 19.5196 2.10536 19.7071 2.29289C19.8946 2.48043 20 2.73478 20 3V7C20 7.26522 19.8946 7.51957 19.7071 7.70711C19.5196 7.89464 19.2652 8 19 8ZM11 6H18V4H11V6Z" fill="#404040"/>
</svg>
