<svg width="25" height="25" viewBox="0 0 25 25" fill="none" xmlns="http://www.w3.org/2000/svg">
<circle cx="12.5" cy="12.5" r="11.5" stroke="#404040" stroke-width="2"/>
<path d="M16.7108 14.485C16.2922 14.2186 15.7369 14.342 15.4706 14.7606C15.4595 14.778 14.3413 16.5008 12.4551 16.5008C10.5688 16.5008 9.4507 14.778 9.43961 14.7606C9.17322 14.342 8.61794 14.2186 8.19931 14.485C7.78069 14.7514 7.65729 15.3067 7.92367 15.7253C7.99052 15.8303 9.59351 18.2977 12.4551 18.2977C15.3166 18.2977 16.9196 15.8304 16.9865 15.7253C17.2529 15.3067 17.1295 14.7514 16.7108 14.485ZM8.54688 8.41211C9.16711 8.41211 9.66992 8.91492 9.66992 9.53516C9.66992 10.1554 9.16711 10.6582 8.54688 10.6582C7.92664 10.6582 7.42383 10.1554 7.42383 9.53516C7.42383 8.91492 7.92664 8.41211 8.54688 8.41211ZM15.2852 9.53516C15.2852 10.1554 15.788 10.6582 16.4082 10.6582C17.0284 10.6582 17.5313 10.1554 17.5313 9.53516C17.5313 8.91492 17.0284 8.41211 16.4082 8.41211C15.788 8.41211 15.2852 8.91492 15.2852 9.53516Z" fill="#404040"/>
</svg>
