<svg width="25" height="25" viewBox="0 0 25 25" fill="none" xmlns="http://www.w3.org/2000/svg">
<rect x="1" y="24" width="23" height="23" rx="7" transform="rotate(-90 1 24)" stroke="#404040" stroke-width="2"/>
<path d="M8.72747 15.08C8.2208 15.08 7.78347 14.9973 7.41547 14.832C7.0528 14.6613 6.77014 14.416 6.56747 14.096C6.37014 13.7707 6.2608 13.376 6.23947 12.912C6.23414 12.6827 6.23147 12.44 6.23147 12.184C6.23147 11.9227 6.23414 11.6747 6.23947 11.44C6.2608 10.9867 6.3728 10.6027 6.57547 10.288C6.77814 9.97333 7.06347 9.73333 7.43147 9.568C7.79947 9.40267 8.23147 9.32 8.72747 9.32C9.12747 9.32 9.48214 9.37067 9.79147 9.472C10.1008 9.568 10.3595 9.69867 10.5675 9.864C10.7808 10.0293 10.9408 10.2107 11.0475 10.408C11.1595 10.6053 11.2181 10.8 11.2235 10.992C11.2288 11.04 11.2128 11.08 11.1755 11.112C11.1435 11.144 11.1035 11.16 11.0555 11.16H9.88747C9.8288 11.16 9.78347 11.152 9.75147 11.136C9.7248 11.1147 9.7008 11.0853 9.67947 11.048C9.64214 10.968 9.58614 10.8853 9.51147 10.8C9.44214 10.7093 9.34347 10.632 9.21547 10.568C9.0928 10.504 8.93014 10.472 8.72747 10.472C8.42347 10.472 8.18347 10.552 8.00747 10.712C7.8368 10.872 7.74347 11.128 7.72747 11.48C7.71147 11.9387 7.71147 12.4027 7.72747 12.872C7.74347 13.2453 7.84214 13.5147 8.02347 13.68C8.2048 13.8453 8.4448 13.928 8.74347 13.928C8.94614 13.928 9.1248 13.8933 9.27947 13.824C9.43947 13.7547 9.5648 13.648 9.65547 13.504C9.74614 13.3547 9.79147 13.1653 9.79147 12.936V12.784H9.03947C8.9808 12.784 8.93014 12.7653 8.88747 12.728C8.85014 12.6853 8.83147 12.6347 8.83147 12.576V11.984C8.83147 11.9253 8.85014 11.8773 8.88747 11.84C8.93014 11.7973 8.9808 11.776 9.03947 11.776H11.0555C11.1141 11.776 11.1621 11.7973 11.1995 11.84C11.2368 11.8773 11.2555 11.9253 11.2555 11.984V12.896C11.2555 13.3547 11.1515 13.7467 10.9435 14.072C10.7355 14.3973 10.4395 14.648 10.0555 14.824C9.6768 14.9947 9.23414 15.08 8.72747 15.08ZM12.3733 15C12.3146 15 12.2666 14.9813 12.2293 14.944C12.1919 14.9067 12.1733 14.8587 12.1733 14.8V9.6C12.1733 9.54133 12.1919 9.49333 12.2293 9.456C12.2666 9.41867 12.3146 9.4 12.3733 9.4H13.4453C13.5039 9.4 13.5519 9.41867 13.5893 9.456C13.6266 9.49333 13.6453 9.54133 13.6453 9.6V14.8C13.6453 14.8587 13.6266 14.9067 13.5893 14.944C13.5519 14.9813 13.5039 15 13.4453 15H12.3733ZM14.967 15C14.9084 15 14.8604 14.9813 14.823 14.944C14.7857 14.9067 14.767 14.8587 14.767 14.8V9.6C14.767 9.54133 14.7857 9.49333 14.823 9.456C14.8604 9.41867 14.9084 9.4 14.967 9.4H18.639C18.6977 9.4 18.7457 9.41867 18.783 9.456C18.8257 9.49333 18.847 9.54133 18.847 9.6V10.408C18.847 10.4667 18.8257 10.5147 18.783 10.552C18.7457 10.5893 18.6977 10.608 18.639 10.608H16.175V11.784H18.479C18.5377 11.784 18.5857 11.8053 18.623 11.848C18.6657 11.8853 18.687 11.9333 18.687 11.992V12.792C18.687 12.8453 18.6657 12.8933 18.623 12.936C18.5857 12.9733 18.5377 12.992 18.479 12.992H16.175V14.8C16.175 14.8587 16.1564 14.9067 16.119 14.944C16.0817 14.9813 16.0337 15 15.975 15H14.967Z" fill="#404040"/>
</svg>
