<svg width="20" height="18" viewBox="0 0 20 18" fill="none" xmlns="http://www.w3.org/2000/svg">
<path d="M18.1766 1.90686C17.1163 0.828351 15.7108 0.170091 14.2139 0.0509847C12.7171 -0.0681212 11.2276 0.359781 10.0145 1.2574C8.74187 0.297038 7.15781 -0.138434 5.58133 0.0386726C4.00486 0.21578 2.55308 0.992311 1.51835 2.21189C0.483624 3.43147 -0.0571979 5.00351 0.00479662 6.61143C0.0667912 8.21936 0.726997 9.74374 1.85246 10.8776L8.06404 17.1896C8.58419 17.7089 9.28474 18 10.0145 18C10.7443 18 11.4449 17.7089 11.965 17.1896L18.1766 10.8776C19.3445 9.68549 20 8.07299 20 6.39223C20 4.71146 19.3445 3.09897 18.1766 1.90686Z" fill="#FF9900"/>
</svg>
