<svg width="1536" height="1490" viewBox="0 0 1536 1490" fill="none" xmlns="http://www.w3.org/2000/svg">
<path d="M110.5 157C93.7458 157 78.0935 189.236 116.057 307.5M162.5 430C255.7 649.6 279 677 283 743.5C286.999 810 253.3 912 150.5 978M162.5 430C188.333 424.667 267.7 438.6 378.5 537C489.3 635.4 526.333 577 530.5 507.5M162.5 430C141.906 381.477 126.825 341.044 116.057 307.5M1246.5 157C1247.83 207.667 1276.2 325.5 1379 391.5M1379 391.5C1481.8 457.5 1470.33 655.167 1457.5 716M1379 391.5C1385.66 438 1386.7 539.3 1337.5 572.5C1288.3 605.7 1317 642.333 1337.5 656.5M1457.5 716C1457.5 716 1451.41 775.736 1413.44 894M1457.5 716C1473.83 729.667 1514 748 1536 748M1094 120.5C1100 158.534 1100.88 239.662 1104.54 287M1200 622.5C1270.2 710 1246.5 722.833 1246.5 735M1200 622.5C1195.83 604.833 1199.3 559.1 1246.5 517.5C1268.69 497.946 1253.45 458.991 1224.11 417.016M1200 622.5C1169.46 584.438 1149.33 539.616 1135.59 492M415 329.5C410.889 312.666 408.352 288.777 413.308 269.5M704 239C670.4 223 679 177.667 687.5 157C693.5 143 712.4 106.3 740 71.4999M704 239C737.6 255 742 300.667 740 321.5M704 239C682.833 281.333 635.5 351.8 615.5 295C595.5 238.2 566.167 266 554 287M785.5 417.016C803.981 407.65 825.659 399.032 851 391.5C1024.6 339.9 1002.17 260.667 968 204C954.833 185.667 924.1 164.5 950.5 112.5C976.9 60.4999 963.833 30.6665 950.5 36.4999M785.5 417.016C677.375 471.813 678.708 552.211 696.5 590.5C715.784 632 778 605.1 714 703.5M785.5 417.016C792.833 458.177 830.2 544.6 921 561C1011.8 577.4 977.5 603.167 949 614M116.057 307.5C97.7045 328.333 -7.57546 406.607 40.5 492C112 619 4.5 614 4.25577e-05 614M1104.54 287C1106.9 317.553 1109.6 349.234 1113.67 381M1104.54 287C1121.35 301.929 1141.63 321.26 1161.84 342.5M413.308 269.5C404.039 259.167 379.8 249.8 357 295C334.2 340.2 293.833 321.167 276.5 306M413.308 269.5C416.977 255.227 424.753 243.483 439.039 239M439.039 239C446.914 236.529 456.767 236.265 469 239C533.4 253.4 533.167 190.333 525 157C518.833 140.833 499 101.1 469 71.4999C439 41.8999 456.5 14.1665 469 3.99988M439.039 239C460.36 258.994 499.6 310.787 486 358C472.4 405.213 500.333 417.016 516 417.016M1135.59 492C1157.63 486.677 1206.2 464.229 1224.11 417.016M1135.59 492C1125.21 456.024 1118.48 418.453 1113.67 381M1224.11 417.016C1206.7 392.1 1184.31 366.119 1161.84 342.5M1113.67 381C1124.34 379.833 1148.91 370.5 1161.84 342.5M1367 1016.5C1222 1311 1520 1406 1536 1406M1367 1016.5C1341.17 1011.17 1261.8 1025.1 1151 1123.5C1040.2 1221.9 1003.17 1163.5 998.999 1094M1367 1016.5C1387.59 967.976 1402.68 927.544 1413.44 894M150.5 978C47.6995 1044 6 908 0 908M150.5 978C143.833 1024.5 192 1099.65 192 1159C192 1257 15 1241 0 1241M329.5 1209C300 1281 270.5 1328.5 270.5 1328.5C270.5 1328.5 194.5 1451.5 0 1451.5M329.5 1209C333.666 1191.33 330.2 1145.6 283 1104C260.813 1084.45 276.05 1045.49 305.387 1003.52M329.5 1209C360.037 1170.94 380.172 1126.12 393.911 1078.5M825.499 825.5C859.099 809.5 850.499 764.167 841.999 743.5C835.999 729.5 817.099 692.8 789.499 658M825.499 825.5C791.899 841.5 787.499 887.167 789.499 908M825.499 825.5C846.666 867.833 893.999 938.3 913.999 881.5C933.999 824.7 963.333 852.5 975.499 873.5M743.999 1003.52C725.518 994.15 703.84 985.532 678.499 978C504.899 926.4 527.333 847.167 561.499 790.5C574.666 772.167 605.399 751 578.999 699C552.599 647 565.666 617.167 578.999 623M743.999 1003.52C852.125 1058.31 850.792 1138.71 832.999 1177C813.715 1218.5 761.499 1388.1 825.499 1486.5M743.999 1003.52C736.666 1044.68 699.299 1131.1 608.499 1147.5C517.699 1163.9 551.999 1189.67 580.499 1200.5M1413.44 894C1431.8 914.833 1466.3 980.9 1457.5 1078.5C1448.7 1176.1 1536 1177 1536 1177M455.5 586.089C449.495 624.123 428.621 826.162 424.959 873.5M424.959 873.5C422.595 904.053 419.902 935.734 415.826 967.5M424.959 873.5C408.151 888.43 387.868 907.76 367.659 929M1116.19 856C1121.15 875.278 1118.61 899.166 1114.5 916M1116.19 856C1125.46 845.667 1149.7 836.3 1172.5 881.5C1195.3 926.7 1235.67 907.667 1253 892.5M1116.19 856C1112.52 841.727 1104.75 829.983 1090.46 825.5M1090.46 825.5C1082.59 823.029 1072.73 822.765 1060.5 825.5C996.1 839.9 996.333 776.833 1004.5 743.5C1010.67 727.333 1030.5 687.6 1060.5 658C1090.5 628.4 1073 600.667 1060.5 590.5M1090.46 825.5C1069.14 845.495 1029.9 897.287 1043.5 944.5C1057.1 991.713 1029.17 1003.52 1013.5 1003.52M393.911 1078.5C371.866 1073.18 323.298 1050.73 305.387 1003.52M393.911 1078.5C404.291 1042.52 411.02 1004.95 415.826 967.5M305.387 1003.52C322.802 978.6 345.185 952.619 367.659 929M415.826 967.5C405.156 966.333 380.586 957 367.659 929" stroke="#5C5C5C" stroke-opacity="0.3" stroke-width="10"/>
</svg>
