<svg width="32" height="32" viewBox="0 0 32 32" fill="none" xmlns="http://www.w3.org/2000/svg">
<path d="M25 1L12.611 13.388C11.2663 12.9804 9.8448 12.8932 8.46037 13.1336C7.07593 13.374 5.76702 13.9352 4.63843 14.7723C3.50984 15.6094 2.59292 16.6991 1.96111 17.9542C1.3293 19.2093 1.00015 20.5949 1 22C1 24.3869 1.94821 26.6761 3.63604 28.364C5.32387 30.0518 7.61305 31 10 31C11.4052 30.9997 12.7908 30.6705 14.0458 30.0385C15.3009 29.4066 16.3906 28.4896 17.2275 27.3609C18.0645 26.2322 18.6256 24.9232 18.8659 23.5387C19.1061 22.1542 19.0188 20.7327 18.611 19.388L21 17V15H23L31 7V1H25ZM29 6.171L22.172 13H19V16.171L17.197 17.973L16.349 18.821L16.697 19.968C16.898 20.63 17 21.313 17 22C17 25.86 13.859 29 10 29C6.141 29 3 25.86 3 22C3 18.14 6.141 15 10 15C10.686 15 11.37 15.102 12.031 15.302L13.177 15.65L14.025 14.802L25.828 3H29V6.171V6.171Z" fill="#404040"/>
<path d="M8 26C9.10457 26 10 25.1046 10 24C10 22.8954 9.10457 22 8 22C6.89543 22 6 22.8954 6 24C6 25.1046 6.89543 26 8 26Z" fill="#404040"/>
<path d="M20.6465 10.647L26.6465 4.64697L27.3535 5.35397L21.3535 11.354L20.6465 10.647Z" fill="#404040"/>
</svg>
