<svg width="22" height="22" viewBox="0 0 22 22" fill="none" xmlns="http://www.w3.org/2000/svg">
<path d="M11.823 0.750147L11.823 0.750228L11.834 0.750561C16.4197 0.88895 20.2463 4.22633 20.9721 8.68449L20.9705 8.69459L20.9767 8.7824C20.9786 8.81053 20.9694 8.83957 20.9486 8.86308L20.9483 8.86345C20.9275 8.88708 20.896 8.90343 20.8599 8.90576L20.8585 8.90586L12.5153 9.46048L12.5069 9.46105L12.4984 9.46181C12.4299 9.46792 12.3634 9.44494 12.3153 9.40125C12.2676 9.35798 12.2424 9.29883 12.2427 9.23898L12.2428 9.21192L12.241 9.18492L11.6819 0.948601V0.86192C11.6852 0.834121 11.6987 0.80689 11.722 0.785761C11.7482 0.762064 11.7845 0.748416 11.823 0.750147ZM10.686 13.1182L10.686 13.1182L10.6949 13.1176L17.759 12.6613L17.7787 12.6691L17.9147 12.6714C18.0288 12.6732 18.1358 12.7199 18.2129 12.7985C18.2861 12.8735 18.3263 12.9712 18.3283 13.0715C18.0566 16.9093 15.2604 20.1214 11.4466 20.9509L11.4466 20.9509C7.6239 21.7824 3.71039 20.017 1.83825 16.6287L1.83827 16.6287L1.83503 16.623C1.28626 15.6501 0.939686 14.579 0.815329 13.4726L0.813899 13.4598L0.812036 13.4472C0.765429 13.1303 0.745026 12.8103 0.751022 12.4902L0.751114 12.4902L0.75115 12.4785C0.763746 8.38913 3.65004 4.84981 7.70331 3.97709C7.9035 3.94251 8.09703 4.04533 8.17972 4.21771L8.20155 4.26322L8.22928 4.30539C8.23786 4.31845 8.24577 4.33185 8.25299 4.34554C8.33159 5.56504 8.41292 6.77357 8.49384 7.97592L8.49854 8.04577L8.50007 8.06859C8.5662 9.05141 8.63204 10.0301 8.696 11.0087C8.69509 11.3178 8.74502 11.6247 8.84361 11.9175L8.85059 11.9382L8.85877 11.9585C9.15667 12.6978 9.89416 13.1599 10.686 13.1182Z" stroke="#404040" stroke-width="1.5"/>
</svg>
