<svg width="21" height="18" viewBox="0 0 21 18" fill="none" xmlns="http://www.w3.org/2000/svg">
<path d="M8.4478 7.93126C8.33562 7.92731 8.22667 7.89398 8.13263 7.83486C8.0386 7.77573 8.18179 7.52512 8.13278 7.42773C8.04855 7.2902 7.80259 7.29497 7.83792 7.13892C7.87325 6.98288 7.96848 6.84549 8.10448 6.75434V6.51124L19.6787 0.109582C19.751 0.0689641 19.8877 0.254502 19.9708 0.245115C20.0539 0.235728 20.1382 0.242964 20.2183 0.26637C20.2984 0.289777 20.3726 0.328851 20.4363 0.381156C20.5001 0.433461 20.5519 0.497873 20.5887 0.570373C20.6706 0.717735 20.6919 0.889456 20.6483 1.05128C20.6047 1.2131 20.4995 1.48376 20.3536 1.57406L8.7535 8.02562C8.65475 8.05559 8.55115 7.93725 8.4478 7.93126Z" fill="#404040"/>
<path d="M10.4983 17.9993H10.4042C10.2721 17.9771 10.1492 17.919 10.0501 17.8318C9.951 17.7447 9.87969 17.6321 9.84457 17.5072L7.93043 7.45233L0.236247 1.12323C0.128728 1.03898 0.0524842 0.923336 0.0189826 0.793699C-0.014519 0.664061 -0.00346682 0.527438 0.0504769 0.40438C0.0908254 0.282172 0.172004 0.176289 0.281335 0.103265C0.390667 0.0302408 0.521997 -0.00581333 0.654819 0.000732422H20.3347C20.4483 0.00067865 20.5599 0.029597 20.6582 0.0845553C20.7565 0.139514 20.838 0.218557 20.8944 0.313672C20.963 0.405012 21 0.514937 21 0.627746C21 0.740556 20.963 0.85048 20.8944 0.94182L11.0556 17.6864C11.004 17.7849 10.9239 17.8668 10.825 17.9224C10.7261 17.9779 10.6126 18.0046 10.4983 17.9993ZM3.84177 1.91615L9 6.30491C9.12077 6.39296 9.46916 6.66197 9.5 6.80491L10.825 14.5969L18.8418 1.49998L3.84177 1.91615Z" fill="#404040"/>
</svg>
