<svg width="24" height="24" viewBox="0 0 24 24" fill="none" xmlns="http://www.w3.org/2000/svg">
<path d="M19.2 12.3C19.2 14.3368 18.3881 16.1839 17.0703 17.5355C15.7081 18.9325 13.8053 19.8 11.7 19.8C9.67677 19.8 7.84069 18.999 6.49162 17.6967C5.07868 16.3327 4.19995 14.419 4.19995 12.3C4.19995 10.1811 5.07868 8.26738 6.49162 6.90344C7.84069 5.60115 9.67677 4.80005 11.7 4.80005C13.8053 4.80005 15.7081 5.66756 17.0703 7.06463C18.3881 8.41616 19.2 10.2633 19.2 12.3Z" fill="white"/>
<path d="M24 12.5625C24 13.4016 23.7984 14.1797 23.3953 14.8922C22.9922 15.6047 22.4531 16.1625 21.7734 16.5516C21.7922 16.6781 21.8016 16.875 21.8016 17.1422C21.8016 18.4125 21.375 19.4906 20.5312 20.3812C19.6828 21.2766 18.6609 21.7219 17.4656 21.7219C16.9313 21.7219 16.4203 21.6234 15.9375 21.4266C15.5625 22.1953 15.0234 22.8141 14.3156 23.2875C13.6125 23.7656 12.8391 24 12 24C11.1422 24 10.3641 23.7703 9.67031 23.3016C8.97188 22.8375 8.4375 22.2141 8.0625 21.4266C7.57969 21.6234 7.07344 21.7219 6.53437 21.7219C5.33906 21.7219 4.3125 21.2766 3.45469 20.3812C2.59687 19.4906 2.17031 18.4078 2.17031 17.1422C2.17031 17.0016 2.18906 16.8047 2.22188 16.5516C1.54219 16.1578 1.00313 15.6047 0.6 14.8922C0.201563 14.1797 0 13.4016 0 12.5625C0 11.6719 0.225 10.8516 0.670313 10.1109C1.11563 9.37031 1.71562 8.82188 2.46562 8.46563C2.26875 7.93125 2.17031 7.39219 2.17031 6.85781C2.17031 5.59219 2.59687 4.50937 3.45469 3.61875C4.3125 2.72812 5.33906 2.27812 6.53437 2.27812C7.06875 2.27812 7.57969 2.37656 8.0625 2.57344C8.4375 1.80469 8.97656 1.18594 9.68438 0.7125C10.3875 0.239062 11.1609 0 12 0C12.8391 0 13.6125 0.239063 14.3156 0.707813C15.0187 1.18125 15.5625 1.8 15.9375 2.56875C16.4203 2.37187 16.9266 2.27344 17.4656 2.27344C18.6609 2.27344 19.6828 2.71875 20.5312 3.61406C21.3797 4.50937 21.8016 5.5875 21.8016 6.85312C21.8016 7.44375 21.7125 7.97812 21.5344 8.46094C22.2844 8.81719 22.8844 9.36563 23.3297 10.1063C23.775 10.8516 24 11.6719 24 12.5625V12.5625ZM11.4891 16.1766L16.4437 8.75625C16.5703 8.55938 16.6078 8.34375 16.5656 8.11406C16.5187 7.88438 16.4016 7.70156 16.2047 7.57969C16.0078 7.45312 15.7922 7.41094 15.5625 7.44375C15.3281 7.48125 15.1406 7.59375 15 7.79062L10.6359 14.3531L8.625 12.3469C8.44688 12.1687 8.24062 12.0844 8.01094 12.0938C7.77656 12.1031 7.575 12.1875 7.39688 12.3469C7.2375 12.5062 7.15781 12.7078 7.15781 12.9516C7.15781 13.1906 7.2375 13.3922 7.39688 13.5563L10.1578 16.3172L10.2938 16.425C10.4531 16.5328 10.6172 16.5844 10.7766 16.5844C11.0906 16.5797 11.3297 16.4484 11.4891 16.1766V16.1766Z" fill="#FF9900"/>
</svg>
